<svg version="1.1" viewBox="0.0 0.0 960.0 540.0" fill="none" stroke="none" stroke-linecap="square" stroke-miterlimit="10" xmlns:xlink="http://www.w3.org/1999/xlink" xmlns="http://www.w3.org/2000/svg"><clipPath id="g2f18d5ac025_0_0.0"><path d="m0 0l960.0 0l0 540.0l-960.0 0l0 -540.0z" clip-rule="nonzero"/></clipPath><g clip-path="url(#g2f18d5ac025_0_0.0)"><path fill="#0a1128" d="m0 0l960.0 0l0 540.0l-960.0 0z" fill-rule="evenodd"/><path fill="#000000" fill-opacity="0.0" d="m513.6568 -33.20671c0 0 8.432678 55.69424 -41.552185 84.15228c-37.0636 21.090916 -106.53317 -13.674049 -88.95923 -33.4766c17.571167 -19.825634 26.053802 42.557434 -2.6116943 69.73371c-38.589325 36.582336 -156.42552 15.065552 -165.67097 -147.47263" fill-rule="evenodd"/><path stroke="#ffffff" stroke-width="2.0" stroke-miterlimit="1.0662" stroke-linecap="butt" stroke-dasharray="8.0,6.0" d="m513.6568 -33.20671c0 0 8.432678 55.69424 -41.552185 84.15228c-37.0636 21.090916 -106.53317 -13.674049 -88.95923 -33.4766c17.571167 -19.825634 26.053802 42.557434 -2.6116943 69.73371c-38.589325 36.582336 -156.42552 15.065552 -165.67097 -147.47263" fill-rule="evenodd"/><path fill="#000000" fill-opacity="0.0" d="m874.6298 454.44223c0 0 56.282654 -43.973114 107.708984 -12.128632c51.436462 31.843842 20.101318 117.82605 20.101318 117.82605" fill-rule="evenodd"/><path stroke="#ffffff" stroke-width="2.0" stroke-miterlimit="1.0662" stroke-linecap="butt" stroke-dasharray="8.0,6.0" d="m874.6298 454.44223c0 0 56.282654 -43.973114 107.708984 -12.128632c51.436462 31.843842 20.101318 117.82605 20.101318 117.82605" fill-rule="evenodd"/><path fill="#000000" fill-opacity="0.0" d="m500.38467 585.2849c0 0 25.407501 8.87854 58.845673 -64.500854c8.630005 -18.926025 23.780579 -47.246887 47.68579 -49.075073c6.983032 -0.53396606 17.995667 1.4747009 21.40857 7.9038696c5.418152 10.21521 -6.506714 17.749115 -13.454285 13.215454c-13.023376 -8.509918 2.1602173 -22.847107 10.3828125 -27.902527c39.38037 -24.214996 44.866333 29.489319 108.921265 48.67328c64.05664 19.190247 100.87933 -4.7407227 100.87933 -4.7407227" fill-rule="evenodd"/><path stroke="#ffffff" stroke-width="2.0" stroke-miterlimit="1.0662" stroke-linecap="butt" stroke-dasharray="8.0,6.0" d="m500.38467 585.2849c0 0 25.407501 8.87854 58.845673 -64.500854c8.630005 -18.926025 23.780579 -47.246887 47.68579 -49.075073c6.983032 -0.53396606 17.995667 1.4747009 21.40857 7.9038696c5.418152 10.21521 -6.506714 17.749115 -13.454285 13.215454c-13.023376 -8.509918 2.1602173 -22.847107 10.3828125 -27.902527c39.38037 -24.214996 44.866333 29.489319 108.921265 48.67328c64.05664 19.190247 100.87933 -4.7407227 100.87933 -4.7407227" fill-rule="evenodd"/><path fill="#eeeeee" d="m919.3579 459.12076l-36.466675 -6.9494324l-22.489807 -25.239868l-37.64392 -4.6213684l-36.79364 69.12836l37.137756 5.493744l22.081055 25.655762l37.123413 6.1331177l37.05182 -69.60031z" fill-rule="evenodd"/><path fill="#4285f4" d="m913.70856 461.8224l-32.754272 -6.2431946l-22.397278 -25.134064l-33.716248 -4.137146l-33.127563 62.22766l33.303223 4.9270935l22.101929 25.686737l33.16394 5.47052l33.42627 -62.797607z" fill-rule="evenodd"/><path fill="#ffffff" fill-opacity="0.3" d="m858.55707 430.44525l-33.54059 63.01761l22.101929 25.686737l33.835938 -63.57025l-22.397278 -25.134094z" fill-rule="evenodd"/><path fill="#ffffff" d="m890.0391 474.21844l-7.015503 13.175751l-12.330017 -2.5828552l6.8779297 -12.918976l12.46759 2.3260803zm-39.78064 -28.17694l7.355835 8.161224l-7.2875366 13.69165l0 0l-7.5039062 -8.026672l-11.605591 -1.8775635l7.2578125 -13.640015l11.783386 1.6913757zm10.6831665 11.8385315l11.81073 13.111542l-6.828064 12.828186l-2.5714722 4.841858l-0.5496826 1.0325623l-7.5668945 14.216919l0 0l-11.979431 -12.814178l17.684814 -33.21689zm-20.690308 6.829529l7.4017944 8.211365l-7.760803 14.579376l0 0l-7.454895 -7.9741516l-11.677124 -1.8878174l9.41394 -17.688782l0 0l-1.637085 3.0820312l11.714172 1.6779785zm-6.3790894 -21.024628l-17.67694 33.213013l-12.27771 -1.9915466l17.565735 -32.99063l12.388916 1.769165zm32.01233 -5.015808l-5.588684 10.503204l-7.454895 -7.9741516l-11.679504 -1.8847046l5.494446 -10.322357l-4.657593 -0.56814575l-5.3963623 10.149414l-12.28009 -1.9884338l5.1605225 -9.700043l-4.6465454 -0.5696106l-5.0789795 9.529266l-2.8804932 5.4187927l-17.522339 32.914703l-2.8812256 5.4132385l-4.762085 8.948517l4.5908813 0.68081665l4.774048 -8.964111l12.392029 1.7715454l-4.8062134 9.01889l4.588501 0.68392944l4.8151245 -9.036896l11.784973 1.6827087l7.3566284 8.166748l-4.9680176 9.326569l3.2661743 3.7892456l5.02124 -9.434631l11.813843 13.113922l-5.228882 9.82132l4.8675537 0.79901123l5.1852417 -9.725769l27.98999 5.225647l2.7556152 -5.1720886l-27.884521 -5.4276733l8.092346 -15.198547l27.737122 5.7165833l2.5271606 -4.75177l-12.280579 -2.5696716l7.0444946 -13.23291l12.416687 2.30188l2.836914 -5.323181l-27.952087 -5.3008423l5.3206177 -9.999084l-4.812683 -0.91567993l-5.3206177 9.999084l-11.97876 -12.808655l5.5354614 -10.395142l-3.3064575 -3.7109375z" fill-rule="evenodd"/><path fill="#595959" d="m845.8278 443.67172c0.4746704 0.364563 0.6317749 1.0263367 0.33880615 1.5758667c-0.3209839 0.5925293 -1.0717773 0.82025146 -1.6712646 0.48895264c-0.0368042 -0.023284912 -0.08288574 -0.053710938 -0.1227417 -0.07937622c-0.018066406 -0.008880615 -0.03363037 -0.020874023 -0.04925537 -0.03286743c-0.47155762 -0.3621521 -0.6199951 -1.0222473 -0.32562256 -1.56073c0.3032837 -0.55651855 0.9666748 -0.7868042 1.5413818 -0.55895996c0.047058105 0.016296387 0.08618164 0.03643799 0.12609863 0.06210327c0.0602417 0.031402588 0.11260986 0.06665039 0.16259766 0.10501099zm0.76171875 -0.9789429c-0.14050293 -0.107910156 -0.2930298 -0.20022583 -0.45446777 -0.27453613c-0.8499756 -0.39953613 -1.9434204 -0.30093384 -2.6658325 0.6138611c-0.7996216 0.9895325 -1.3892212 2.89505 -1.1834717 6.4737854c0.0060424805 0.08905029 0.010437012 0.18676758 0.01965332 0.27822876c3.284729 -1.8464355 4.6171875 -3.4197998 5.0305786 -4.656311c0.3352661 -1.0184326 -0.0625 -1.90979 -0.74645996 -2.435028z" fill-rule="evenodd"/><path fill="#595959" d="m842.3744 450.84506c-0.12176514 -0.09353638 -0.26879883 -0.18658447 -0.42919922 -0.27505493c-0.53082275 -0.27853394 -1.0353394 -0.37802124 -1.1230469 -0.21203613c-0.0635376 0.11505127 0.08691406 0.3199463 0.35858154 0.528595c0.124938965 0.095947266 0.27508545 0.19137573 0.44415283 0.28152466c0.53082275 0.27853394 1.0321655 0.37561035 1.1206665 0.21517944c0.06036377 -0.11746216 -0.09631348 -0.32717896 -0.3711548 -0.538208z" fill-rule="evenodd"/><path fill="#595959" d="m872.77325 494.38724c0.4746704 0.36453247 0.6293335 1.0294495 0.33569336 1.5734558c-0.3178711 0.5949402 -1.069397 0.8171387 -1.6650391 0.4937439c-0.043029785 -0.028045654 -0.085998535 -0.056121826 -0.122802734 -0.07937622c-0.015563965 -0.011993408 -0.031188965 -0.023986816 -0.046813965 -0.035980225c-0.4746704 -0.36453247 -0.6254883 -1.0215149 -0.33422852 -1.5624084c0.30322266 -0.55651855 0.9697876 -0.7843933 1.5413208 -0.55892944c0.044677734 0.01940918 0.09246826 0.04119873 0.13476562 0.06375122c0.054748535 0.03213501 0.1071167 0.06738281 0.15710449 0.10574341zm0.75860596 -0.98132324c-0.14056396 -0.107940674 -0.2962036 -0.20263672 -0.45758057 -0.27694702c-0.85235596 -0.39642334 -1.9379272 -0.30166626 -2.668274 0.6169739c-0.7941284 0.98880005 -1.3843994 2.888794 -1.1787109 6.4675293c0.0037231445 0.0921936 0.010498047 0.18676758 0.01727295 0.28137207c3.2941284 -1.8392639 4.6226807 -3.4205322 5.0281982 -4.6531982c0.33770752 -1.0215759 -0.06011963 -1.9129028 -0.74090576 -2.43573z" fill-rule="evenodd"/><path fill="#595959" d="m869.32605 501.56537c-0.12487793 -0.095947266 -0.2750244 -0.19137573 -0.4440918 -0.28152466c-0.526001 -0.28479004 -1.0297852 -0.37872314 -1.1175537 -0.21276855c-0.06109619 0.11193848 0.08935547 0.3168335 0.35791016 0.5231018c0.124938965 0.09591675 0.27819824 0.1937561 0.44415283 0.28149414c0.526001 0.28479004 1.032898 0.38113403 1.1206055 0.21517944c0.058044434 -0.11431885 -0.09240723 -0.31924438 -0.36102295 -0.5254822z" fill-rule="evenodd"/><path fill="#595959" d="m809.3898 478.47394c0.47155762 0.3621521 0.6317749 1.0263062 0.33569336 1.5734558c-0.31549072 0.5918274 -1.0614624 0.81329346 -1.6682129 0.491333c-0.039855957 -0.025665283 -0.0859375 -0.05609131 -0.1227417 -0.07937622c-0.015563965 -0.011993408 -0.031188965 -0.023956299 -0.046813965 -0.035949707c-0.4746704 -0.364563 -0.6231079 -1.0246582 -0.32800293 -1.5576477c0.3001709 -0.5588989 0.9659424 -0.79229736 1.538269 -0.56134033c0.047058105 0.016296387 0.09173584 0.035705566 0.1315918 0.06137085c0.054748535 0.03213501 0.11022949 0.06976318 0.16021729 0.1081543zm0.76171875 -0.9789429c-0.14056396 -0.107940674 -0.29309082 -0.20022583 -0.4520874 -0.27764893c-0.85546875 -0.39883423 -1.9434204 -0.30096436 -2.6713257 0.614563c-0.7965698 0.99194336 -1.3868408 2.8919373 -1.1810913 6.4706726c0.0060424805 0.08905029 0.010437012 0.18676758 0.01965332 0.27822876c3.2854614 -1.8409119 4.6171875 -3.4197998 5.03125 -4.6507874c0.33221436 -1.0208435 -0.0625 -1.90979 -0.7463989 -2.435028z" fill-rule="evenodd"/><path fill="#595959" d="m805.94116 485.64102c-0.124938965 -0.095947266 -0.27191162 -0.18899536 -0.43792725 -0.2767334c-0.53149414 -0.28405762 -1.0321655 -0.37561035 -1.1229858 -0.21203613c-0.058776855 0.108795166 0.09484863 0.31610107 0.3696289 0.52716064c0.12182617 0.09353638 0.26953125 0.19207764 0.43548584 0.27981567c0.5284424 0.28167725 1.0353394 0.37802124 1.1199341 0.20965576c0.06109619 -0.11190796 -0.09246826 -0.31921387 -0.36413574 -0.52786255z" fill-rule="evenodd"/><path fill="#eeeeee" d="m135.87386 137.57976l0 0c0.040130615 0.069000244 0.075927734 0.14868164 0.10974121 0.22444153c-0.029663086 -0.077194214 -0.069610596 -0.15544128 -0.10974121 -0.22444153zm-88.142876 17.916199c0.2553749 -0.632782 0.96961975 -1.0553436 1.8273163 -0.92930603l39.921288 5.703903l0.09781647 0.014678955l-8.55101 -29.182358l-11.473053 -4.7469864c-0.29418182 -0.12195587 -0.536499 -0.31922913 -0.71512604 -0.55908203c-0.120224 -0.15415192 -0.21443939 -0.3195343 -0.26390076 -0.50720215l-0.71990967 -2.7099c-0.07080078 -0.26772308 -0.05102539 -0.5205765 0.038406372 -0.7421875c0.2155075 -0.5340042 0.8334427 -0.8774719 1.5465698 -0.74773407l9.355827 1.7147827c0 0 0.0021591187 -0.005340576 0.0064697266 -0.016021729c0.058189392 -0.1441803 0.5156708 -1.2511673 1.2816086 -2.1652222c0.736557 -0.8855591 2.0493393 -1.178093 3.2857437 -0.7406845c1.3688049 0.48158264 2.6007614 1.3022614 2.6007614 1.3022614l6.697876 -5.33992c0.72306824 -0.5773697 1.9369049 -0.27018738 2.3609314 0.5936127l1.2742462 2.5860596c0.08683777 0.17482758 0.12506866 0.35485077 0.13239288 0.53170776c0.011314392 0.18468475 -0.015510559 0.36637878 -0.08339691 0.53458405c-0.03340149 0.0827713 -0.076034546 0.16181183 -0.13096619 0.23588562l-6.3794937 8.778839l13.097565 28.109497l29.706825 -21.43953c0.9497986 -0.67829895 2.4553528 -0.22531128 2.9123535 0.8847046l1.0862885 2.6529694c0.03779602 0.08358765 0.044540405 0.17326355 0.069885254 0.26113892c0.1253357 0.46054077 0.109176636 0.9260254 -0.056762695 1.337204c-0.08943176 0.2216034 -0.2230072 0.42848206 -0.40055847 0.61138916l-12.254326 12.637756c0.06335449 0.038024902 2.3331985 2.0450287 2.3331985 2.0450287l-2.6236038 2.4149017c0 0 -2.1536026 -1.9227753 -2.1617508 -1.9291687l-5.839302 6.022171c0.069503784 0.040496826 2.3393478 2.0475006 2.3393478 2.0475006l-2.6246796 2.4175873c0 0 -2.1576004 -1.930603 -2.1657486 -1.9370117l-5.518814 5.688965l6.6615295 18.814194c0.60767365 1.7205353 0.5947418 3.5164032 -0.025024414 5.123001l-0.07219696 0.17887878c-0.006462097 0.016021729 -0.01184845 0.029373169 -0.018318176 0.045394897c-1.1702118 2.8996124 -5.1654816 3.7852936 -8.149887 1.7939148c-1.7596741 -1.170517 -3.1008606 -2.7930145 -3.829689 -4.6121826l-7.362381 -18.451431l-13.238991 -3.8456726l-0.48735046 2.5016327l-3.8909683 -0.9416046c0 0 0.5233841 -2.6174927 0.5449295 -2.6708984l-9.094345 -2.6463318l-0.48320007 2.5002136l-3.8909683 -0.94158936c0 0 0.521225 -2.6121674 0.542778 -2.6655731l-14.452045 -4.199127c-0.7836838 -0.22966003 -1.412384 -0.77246094 -1.7332802 -1.4486389c-0.041957855 -0.08216858 -0.09729767 -0.16662598 -0.12479782 -0.24916077l-0.92154694 -2.6888885c-0.1238327 -0.3667755 -0.10848236 -0.7238922 0.01543808 -1.0309448z" fill-rule="evenodd"/><path fill="#595959" d="m102.94539 157.21779l1.2017899 -0.86839294l28.505028 -20.571152c0.94673157 -0.6795349 2.4553528 -0.22531128 2.9092865 0.8834839l1.0862732 2.652954c0.03781128 0.083602905 0.044540405 0.17326355 0.06990051 0.26113892l-0.7276306 -1.7689972c-0.4620819 -1.1151733 -1.9685516 -1.5747528 -2.9143524 -0.8886261l-28.505188 20.580399l4.4454803 12.118134l-1.2743912 1.3141785l-4.796196 -13.7131195z" fill-rule="evenodd"/><path fill="#595959" d="m47.72997 155.4896c0.2553749 -0.632782 0.96961975 -1.0553436 1.8283958 -0.9319763l39.921288 5.703903l0.09780884 0.014678955l5.371933 13.5451355l-2.1282196 -0.6207123l-4.5274887 -12.030151l-38.307697 -5.4743347c-0.85570145 -0.12211609 -1.5688667 0.29776 -1.8253212 0.93322754c-0.12284088 0.30438232 -0.14126587 0.66026306 -0.0143585205 1.0282745l0.618721 1.79953c-0.04088211 -0.08483887 -0.09837341 -0.16395569 -0.12787247 -0.250412l-0.9204712 -2.6915588c-0.12491226 -0.36410522 -0.109558105 -0.7212219 0.013282776 -1.0256042z" fill-rule="evenodd"/><path fill="#ff0000" d="m106.93137 194.397c0.82382965 0.236557 1.7664261 0.34721375 2.7486725 0.12919617c0.9760971 -0.22050476 1.6955948 -0.70925903 2.2291641 -1.2514038l1.0867767 1.2247162c-0.22161102 0.40731812 -0.5015106 0.78178406 -0.8558197 1.1013336c-0.4516983 0.40130615 -1.0677719 0.69584656 -1.7362442 0.8543091c-0.7824478 0.18385315 -1.6432648 0.18075562 -2.4174118 -0.06367493c-0.38814545 -0.11955261 -0.7587433 -0.30033875 -1.1167221 -0.49464417l0.061584473 -1.4998322z" fill-rule="evenodd"/><path fill="#ff0000" d="m112.038475 193.14069c0.53235626 -0.5923004 0.84864044 -1.2253265 1.0145798 -1.6365051c0.10775757 -0.2669983 0.15303802 -0.4412384 0.15303802 -0.4412384l0 0l0.47986603 1.283844c0.07221985 0.18443298 -0.11895752 0.62268066 -0.16762543 0.8141937c-0.07268524 0.2687378 -0.15983582 0.53785706 -0.26327515 0.7941742c-0.015090942 0.037384033 -0.030174255 0.07475281 -0.04525757 0.11213684c-0.042785645 0.08830261 -0.084495544 0.17391968 -0.13451385 0.2624054l-1.0368118 -1.1890106z" fill-rule="evenodd"/><path fill="#ff0000" d="m104.3083 193.0702c0 0 0.9968033 0.80952454 2.4237518 1.2711182l-0.052497864 1.4507141c-0.6878052 -0.40519714 -1.3265152 -0.90545654 -1.8883133 -1.4367371l-0.48294067 -1.2850952z" fill-rule="evenodd"/><path fill="#595959" d="m67.886536 121.8443c0.21443176 -0.5313339 0.83236694 -0.87480164 1.5444107 -0.7423935l8.231163 1.5057297l1.1288223 0.20762634c0 0 0.0021591187 -0.005340576 0.0064697266 -0.016021729c0.058181763 -0.1441803 0.5156708 -1.2511673 1.2816086 -2.1652222c0.73763275 -0.88822937 2.0493393 -1.1781006 3.285736 -0.74069214c1.3718872 0.48283386 2.600769 1.3022614 2.600769 1.3022614l0.8098297 -0.6416855l5.8921967 -4.6996613c0.7272186 -0.5787964 1.9379807 -0.27285004 2.364006 0.59485626l1.272255 2.5821533c0.08882904 0.17873383 0.12398529 0.35752106 0.1374588 0.5368576l-0.9748535 -1.9806671c-0.42910767 -0.8689575 -1.6420212 -1.1695633 -2.3670883 -0.5961075l-5.778206 4.6121902l3.3199768 6.424721l-0.7958374 1.0945129l-3.3579636 -6.862404l-0.097229004 0.072517395c0 0 -1.2268829 -0.81552124 -2.5996857 -1.3049316c-1.2333221 -0.43616486 -2.545189 -0.13704681 -3.2826614 0.7419281c-0.7776413 0.9341736 -1.2426682 2.0598526 -1.2879181 2.171997c-0.0021591187 0.005332947 -0.0032348633 0.008003235 -0.0032348633 0.008003235l-0.1276474 -0.020515442l1.937355 7.1828003l-1.4350586 -0.5921936l-1.6589508 -6.8001633l-8.067535 -1.4768829c-0.7162018 -0.13098145 -1.329979 0.21105957 -1.5454865 0.7450638c-0.08943939 0.22161102 -0.10921478 0.47446442 -0.038406372 0.7421799l0.5489502 2.0787735c-0.119140625 -0.1568222 -0.21336365 -0.3222046 -0.26390076 -0.50720215l-0.71775055 -2.715248c-0.071884155 -0.26504517 -0.05103302 -0.5205765 0.038406372 -0.7421799z" fill-rule="evenodd"/><path fill="#000000" fill-opacity="0.0" d="m78.09455 112.63941c0 0 -13.209541 -44.216125 -63.47815 -42.19706c-37.27021 1.5048447 -80.48863 58.210495 -59.30224 64.606186c21.192442 6.4137115 5.6247025 -42.676277 -27.095863 -49.391975c-44.047493 -9.039009 -130.78406 59.98342 -79.917946 182.0589" fill-rule="evenodd"/><path stroke="#ffffff" stroke-width="2.0" stroke-miterlimit="1.0662" stroke-linecap="butt" stroke-dasharray="8.0,6.0" d="m78.09455 112.63941c0 0 -13.209541 -44.216125 -63.47815 -42.19706c-37.27021 1.5048447 -80.48863 58.210495 -59.30224 64.606186c21.192442 6.4137115 5.6247025 -42.676277 -27.095863 -49.391975c-44.047493 -9.039009 -130.78406 59.98342 -79.917946 182.0589" fill-rule="evenodd"/><path fill="#eeeeee" d="m808.9341 49.104164c0.017700195 0 0.03540039 0 0.05316162 0c3.8708496 0.032894135 6.98468 3.198372 6.94928 7.0672874c-0.030395508 3.848671 -3.1645508 6.9458313 -7.005005 6.9458313c-0.020263672 0 -0.04046631 0 -0.06072998 0c-0.28356934 -0.0050621033 -0.5620117 -0.027835846 -0.83288574 -0.06072998c-3.4733887 -0.44281387 -6.149292 -3.4159813 -6.1189575 -7.0040283c0.030395508 -3.588047 2.7543945 -6.515667 6.2303467 -6.902813c0.2581787 -0.027835846 0.51898193 -0.045547485 0.78479004 -0.045547485zm-0.0025634766 -6.988846c-0.24047852 0 -0.48101807 0.0050621033 -0.7189331 0.01771164c-5.3341675 0.28087234 -10.498657 3.6639595 -11.72644 10.184689c-1.3265991 7.0647545 0.7974243 18.16037 11.33905 35.543922c0.27093506 0.44281006 0.546875 0.89068604 0.8253174 1.3436203c11.564453 -17.968063 14.030212 -29.41034 12.784668 -36.677525c-1.1848145 -6.930645 -6.845459 -10.412418 -12.503662 -10.412418z" fill-rule="evenodd"/><path fill="#eeeeee" d="m808.92896 94.09896c-3.4125977 0 -6.1796265 0.8577957 -6.1796265 1.9104233c0 1.0500946 2.7670288 1.9053574 6.1796265 1.9053574c3.4151611 0 6.182251 -0.8527298 6.182251 -1.9053574c0 -1.0551605 -2.7670898 -1.9104233 -6.182251 -1.9104233z" fill-rule="evenodd"/><path fill="#eeeeee" d="m808.9366 42.11279c-0.24304199 0 -0.48358154 0.0075912476 -0.72406006 0.020240784c5.3290405 0.3669052 10.435303 3.8360214 11.551758 10.379524c1.2126465 7.087532 -1.1012573 18.142658 -11.939087 35.349087c0.27087402 0.44281006 0.54681396 0.89068604 0.82525635 1.3436203c11.564453 -17.968063 14.030212 -29.41034 12.784668 -36.677525c-1.1847534 -6.928116 -6.8429565 -10.4149475 -12.498535 -10.4149475z" fill-rule="evenodd"/><path fill="#eeeeee" d="m132.0968 476.61334c0.017715454 0 0.03543091 0 0.05316162 0c3.8708344 0.03289795 6.984726 3.1983948 6.94928 7.0672913c-0.030380249 3.8486633 -3.1645203 6.9458313 -7.0049744 6.9458313c-0.020263672 0 -0.040512085 0 -0.060760498 0c-0.28353882 -0.005065918 -0.562027 -0.027832031 -0.832901 -0.06072998c-3.4733734 -0.44281006 -6.149292 -3.415985 -6.1189117 -7.0040283c0.030380249 -3.5880432 2.7543945 -6.5156555 6.230301 -6.9028015c0.2582245 -0.027832031 0.51898193 -0.045562744 0.7848053 -0.045562744zm-0.002532959 -6.9888306c-0.24050903 0 -0.48101807 0.005065918 -0.7189789 0.017700195c-5.334114 0.2808838 -10.498604 3.663971 -11.72644 10.184692c-1.326561 7.0647583 0.79746246 18.16037 11.339096 35.543945c0.27088928 0.44281006 0.5468292 0.89068604 0.8253174 1.3435669c11.564407 -17.968048 14.030197 -29.410309 12.784637 -36.67749c-1.1847839 -6.930664 -6.8454742 -10.412415 -12.503632 -10.412415z" fill-rule="evenodd"/><path fill="#eeeeee" d="m132.0917 521.60815c-3.412613 0 -6.1796646 0.8577881 -6.1796646 1.9104004c0 1.0501099 2.7670517 1.9053955 6.1796646 1.9053955c3.4151459 0 6.182205 -0.8527832 6.182205 -1.9053955c0 -1.0551758 -2.7670593 -1.9104004 -6.182205 -1.9104004z" fill-rule="evenodd"/><path fill="#eeeeee" d="m132.09929 469.62198c-0.24304199 0 -0.48355103 0.007598877 -0.7240448 0.020233154c5.3290405 0.36691284 10.435303 3.836029 11.551758 10.379517c1.2126312 7.087555 -1.1012573 18.14267 -11.939102 35.34912c0.27088928 0.44281006 0.5468292 0.89068604 0.8253174 1.3435669c11.564407 -17.968048 14.030197 -29.410309 12.784637 -36.67749c-1.1847839 -6.928131 -6.8429413 -10.4149475 -12.498566 -10.4149475z" fill-rule="evenodd"/><path fill="#eeeeee" d="m346.7192 499.37543c-0.79125977 0 -1.5852051 0.3013916 -2.1880493 0.90689087c-1.2084045 1.2055969 -1.2084045 3.167389 0 4.3756714l2.73172 2.7314453l-2.73172 2.7314453c-1.2084045 1.2055969 -1.2084045 3.1539612 0 4.3595276c0.60284424 0.6055298 1.3967896 0.9069214 2.1880493 0.9069214c0.79125977 0 1.5852051 -0.3013916 2.1880493 -0.9069214l2.73172 -2.7314148l2.73172 2.7314148c0.60284424 0.6055298 1.3914185 0.9069214 2.1799622 0.9069214c0.7885742 0 1.5771484 -0.3013916 2.1826782 -0.9069214c1.205719 -1.2055664 1.205719 -3.1539307 0 -4.3595276l-2.7316895 -2.7314453l2.7316895 -2.7314453c1.205719 -1.2082825 1.205719 -3.1700745 0 -4.3756714c-0.6055298 -0.60549927 -1.394104 -0.90689087 -2.1826782 -0.90689087c-0.7885437 0 -1.5771179 0.3013916 -2.1799622 0.90689087l-2.73172 2.7314453l-2.73172 -2.7314453c-0.60284424 -0.60549927 -1.3967896 -0.90689087 -2.1880493 -0.90689087z" fill-rule="evenodd"/><path fill="#eeeeee" d="m889.25726 285.09982c-0.79125977 0 -1.5852051 0.3013916 -2.1880493 0.90689087c-1.208435 1.2055969 -1.208435 3.1674194 0 4.375702l2.7316895 2.7314453l-2.7316895 2.7314453c-1.208435 1.2055969 -1.208435 3.1539307 0 4.3595276c0.60284424 0.60549927 1.3967896 0.90689087 2.1880493 0.90689087c0.79125977 0 1.5852051 -0.3013916 2.1880493 -0.90689087l2.7317505 -2.7314453l2.7316895 2.7314453c0.60284424 0.60549927 1.3914185 0.90689087 2.1799927 0.90689087c0.7885742 0 1.5770874 -0.3013916 2.1826782 -0.90689087c1.2056885 -1.2055969 1.2056885 -3.1539307 0 -4.3595276l-2.7317505 -2.7314453l2.7317505 -2.7314453c1.2056885 -1.2082825 1.2056885 -3.170105 0 -4.375702c-0.6055908 -0.60549927 -1.394104 -0.90689087 -2.1826782 -0.90689087c-0.7885742 0 -1.5771484 0.3013916 -2.1799927 0.90689087l-2.7316895 2.7314453l-2.7317505 -2.7314453c-0.60284424 -0.60549927 -1.3967896 -0.90689087 -2.1880493 -0.90689087z" fill-rule="evenodd"/><path fill="#eeeeee" d="m46.643097 336.25204c-0.79125214 0 -1.5851974 0.30142212 -2.188057 0.9069214c-1.2084122 1.2055969 -1.2084122 3.167389 0 4.3756714l2.7317085 2.7314453l-2.7317085 2.7314453c-1.2084122 1.2055969 -1.2084122 3.1539307 0 4.3595276c0.6028595 0.60549927 1.3968048 0.9069214 2.188057 0.9069214c0.79125595 0 1.5852013 -0.30142212 2.1880608 -0.9069214l2.7317085 -2.7314148l2.7317085 2.7314148c0.6028595 0.60549927 1.3914223 0.9069214 2.179985 0.9069214c0.78855896 0 1.5771217 -0.30142212 2.1826744 -0.9069214c1.205719 -1.2055969 1.205719 -3.1539307 0 -4.3595276l-2.7317085 -2.7314453l2.7317085 -2.7314453c1.205719 -1.2082825 1.205719 -3.1700745 0 -4.3756714c-0.6055527 -0.60549927 -1.3941154 -0.9069214 -2.1826744 -0.9069214c-0.7885628 0 -1.5771255 0.30142212 -2.179985 0.9069214l-2.7317085 2.7314148l-2.7317085 -2.7314148c-0.6028595 -0.60549927 -1.3968048 -0.9069214 -2.1880608 -0.9069214z" fill-rule="evenodd"/><path fill="#000000" fill-opacity="0.0" d="m110.92449 204.4849c0 0 8.432686 55.694244 -41.552155 84.15228c-37.063606 21.090912 -106.53318 -13.674042 -88.95923 -33.47661c17.571165 -19.825638 26.053787 42.55742 -2.611683 69.73372c-38.589348 36.582336 -156.42554 15.065552 -165.67099 -147.47263" fill-rule="evenodd"/><path stroke="#ffffff" stroke-width="2.0" stroke-miterlimit="1.0662" stroke-linecap="butt" stroke-dasharray="8.0,6.0" d="m110.92449 204.4849c0 0 8.432686 55.694244 -41.552155 84.15228c-37.063606 21.090912 -106.53318 -13.674042 -88.95923 -33.47661c17.571165 -19.825638 26.053787 42.55742 -2.611683 69.73372c-38.589348 36.582336 -156.42554 15.065552 -165.67099 -147.47263" fill-rule="evenodd"/></g></svg>